<svg width="24" height="24" viewBox="0 0 24 24" fill="none" xmlns="http://www.w3.org/2000/svg">
<path d="M21.3333 5.50008V3.11119C21.3333 2.70379 21.1296 2.50008 20.7222 2.50008H18.3889C17.9815 2.50008 17.7778 2.70379 17.7778 3.11119V5.50008C17.7778 5.87045 17.9815 6.05564 18.3889 6.05564H20.7222C21.1296 6.05564 21.3333 5.87045 21.3333 5.50008ZM2.94444 21.5001H20.7222C21.1296 21.5001 21.3333 21.2964 21.3333 20.889V10.8334H18.8333C18.9074 11.2779 18.9444 11.6667 18.9444 12.0001C18.9444 13.963 18.25 15.639 16.8611 17.0279C15.4722 18.4167 13.7963 19.1112 11.8333 19.1112C9.87037 19.1112 8.19444 18.4167 6.80556 17.0279C5.41667 15.639 4.72222 13.963 4.72222 12.0001C4.72222 11.5927 4.75926 11.2038 4.83333 10.8334H2.38889V20.889C2.38889 21.2964 2.57407 21.5001 2.94444 21.5001ZM11.8611 7.27786C10.5463 7.27786 9.42593 7.74082 8.5 8.66675C7.57407 9.59267 7.11111 10.7038 7.11111 12.0001C7.11111 13.2964 7.57407 14.4075 8.5 15.3334C9.42593 16.2593 10.5463 16.7223 11.8611 16.7223C13.1759 16.7223 14.2963 16.2593 15.2222 15.3334C16.1481 14.4075 16.6111 13.2964 16.6111 12.0001C16.6111 10.7038 16.1481 9.59267 15.2222 8.66675C14.2963 7.74082 13.1759 7.27786 11.8611 7.27786ZM21.3333 0.166748C22 0.166748 22.5648 0.39823 23.0278 0.861193C23.4907 1.32416 23.7222 1.87045 23.7222 2.50008V21.5001C23.7222 22.1297 23.4907 22.676 23.0278 23.139C22.5648 23.6019 22 23.8334 21.3333 23.8334H2.38889C1.72222 23.8334 1.15741 23.6019 0.694444 23.139C0.231481 22.676 0 22.1297 0 21.5001V2.50008C0 1.87045 0.231481 1.32416 0.694444 0.861193C1.15741 0.39823 1.72222 0.166748 2.38889 0.166748H21.3333Z" fill="#A9D04D"/>
</svg>
