<svg width="24" height="29" viewBox="0 0 24 29" fill="none" xmlns="http://www.w3.org/2000/svg">
<path d="M5.33333 9.66659V6.99992C5.33333 5.23181 6.03571 3.53612 7.28595 2.28587C8.5362 1.03563 10.2319 0.333252 12 0.333252C13.7681 0.333252 15.4638 1.03563 16.714 2.28587C17.9643 3.53612 18.6667 5.23181 18.6667 6.99992V9.66659H22.6667C23.0203 9.66659 23.3594 9.80706 23.6095 10.0571C23.8595 10.3072 24 10.6463 24 10.9999V26.9999C24 27.3535 23.8595 27.6927 23.6095 27.9427C23.3594 28.1928 23.0203 28.3333 22.6667 28.3333H1.33333C0.979711 28.3333 0.640573 28.1928 0.390524 27.9427C0.140476 27.6927 0 27.3535 0 26.9999V10.9999C0 10.6463 0.140476 10.3072 0.390524 10.0571C0.640573 9.80706 0.979711 9.66659 1.33333 9.66659H5.33333ZM5.33333 12.3333H2.66667V25.6666H21.3333V12.3333H18.6667V14.9999H16V12.3333H8V14.9999H5.33333V12.3333ZM8 9.66659H16V6.99992C16 5.93905 15.5786 4.92164 14.8284 4.17149C14.0783 3.42135 13.0609 2.99992 12 2.99992C10.9391 2.99992 9.92172 3.42135 9.17157 4.17149C8.42143 4.92164 8 5.93905 8 6.99992V9.66659Z" fill="#A9D04D"/>
</svg>
