<svg width="240" height="32" viewBox="0 0 240 32" fill="none" xmlns="http://www.w3.org/2000/svg">
<path d="M25.209 0.569734H33.3782V12.0593H42.5922V0.569734H50.7613V31.4303H42.5922V19.181H33.3782V31.4303H25.209V0.569734Z" fill="#231F20"/>
<path d="M70.7396 18.5638L70.2171 16.4273C69.8372 14.9397 69.4572 13.3254 69.0773 11.5846C68.6973 9.84372 68.3173 8.19783 67.9374 6.64689H67.7474C67.3991 8.22948 67.035 9.8912 66.655 11.632C66.3067 13.3412 65.9426 14.9397 65.5626 16.4273L65.0402 18.5638H70.7396ZM72.2119 24.8783H63.5679L62.048 31.4303H53.6889L63.0929 0.569734H72.9718L82.3758 31.4303H73.7318L72.2119 24.8783Z" fill="#231F20"/>
<path d="M93.4889 14.6231H96.4336C99.7266 14.6231 101.373 13.2621 101.373 10.5401C101.373 9.21068 100.946 8.29278 100.091 7.78635C99.2674 7.27992 98.0484 7.02671 96.4336 7.02671H93.4889V14.6231ZM101.943 31.4303L96.6236 21.0801H93.4889V31.4303H85.3198V0.569734H97.0035C98.65 0.569734 100.217 0.727993 101.706 1.04451C103.225 1.36103 104.539 1.89911 105.648 2.65876C106.787 3.4184 107.69 4.44708 108.355 5.74481C109.02 7.01088 109.352 8.6093 109.352 10.5401C109.352 12.7557 108.893 14.5915 107.975 16.0475C107.088 17.5035 105.885 18.6429 104.365 19.4659L111.062 31.4303H101.943Z" fill="#231F20"/>
<path d="M115.236 0.569734H123.975L128.63 13.1988C128.915 14.0534 129.184 14.9397 129.437 15.8576C129.69 16.7755 129.959 17.6934 130.244 18.6113H130.434C130.719 17.6934 130.988 16.7755 131.242 15.8576C131.495 14.9397 131.764 14.0534 132.049 13.1988L136.514 0.569734H145.253V31.4303H137.844V22.3145C137.844 21.5232 137.875 20.6528 137.939 19.7033C138.034 18.7537 138.129 17.7883 138.224 16.8071C138.319 15.7943 138.429 14.8131 138.556 13.8635C138.683 12.9139 138.793 12.0594 138.888 11.2997H138.698L136.134 18.7062L132.334 28.9139H127.965L124.165 18.7062L121.695 11.2997H121.505C121.6 12.0594 121.711 12.9139 121.838 13.8635C121.964 14.8131 122.075 15.7943 122.17 16.8071C122.265 17.7883 122.344 18.7537 122.408 19.7033C122.503 20.6528 122.55 21.5232 122.55 22.3145V31.4303H115.236V0.569734Z" fill="#231F20"/>
<path d="M165.123 32C162.97 32 161.007 31.636 159.234 30.908C157.492 30.18 155.988 29.1355 154.722 27.7745C153.487 26.3818 152.521 24.6884 151.824 22.6944C151.128 20.6686 150.78 18.3897 150.78 15.8576C150.78 13.3254 151.128 11.0781 151.824 9.11573C152.521 7.12166 153.487 5.45994 154.722 4.13056C155.988 2.76954 157.492 1.74085 159.234 1.04451C161.007 0.348171 162.97 0 165.123 0C167.245 0 169.192 0.348171 170.965 1.04451C172.738 1.74085 174.242 2.76954 175.477 4.13056C176.743 5.49159 177.725 7.15331 178.422 9.11573C179.118 11.0781 179.467 13.3254 179.467 15.8576C179.467 18.3897 179.118 20.6686 178.422 22.6944C177.725 24.6884 176.743 26.3818 175.477 27.7745C174.242 29.1355 172.738 30.18 170.965 30.908C169.192 31.636 167.245 32 165.123 32ZM165.123 24.9733C166.991 24.9733 168.448 24.1662 169.493 22.5519C170.569 20.906 171.107 18.6746 171.107 15.8576C171.107 13.0406 170.569 10.8724 169.493 9.35312C168.448 7.80218 166.991 7.02671 165.123 7.02671C163.255 7.02671 161.783 7.80218 160.706 9.35312C159.661 10.8724 159.139 13.0406 159.139 15.8576C159.139 18.6746 159.661 20.906 160.706 22.5519C161.783 24.1662 163.255 24.9733 165.123 24.9733Z" fill="#231F20"/>
<path d="M184.994 0.569734H193.353L200.192 14.3383L203.137 21.27H203.327C203.232 20.4471 203.121 19.545 202.995 18.5638C202.868 17.5826 202.757 16.5856 202.662 15.5727C202.567 14.5282 202.472 13.4995 202.377 12.4866C202.314 11.4421 202.282 10.4451 202.282 9.49555V0.569734H210.071V31.4303H201.712L194.873 17.6142L191.928 10.73H191.738C191.928 12.5025 192.15 14.4332 192.403 16.5223C192.657 18.6113 192.783 20.6053 192.783 22.5045V31.4303H184.994V0.569734Z" fill="#231F20"/>
<path d="M222.319 20.7953L213.01 0.569734H221.749L224.029 7.02671C224.409 8.19783 224.789 9.33729 225.169 10.4451C225.549 11.5529 225.945 12.7082 226.356 13.911H226.546C226.958 12.7082 227.354 11.5529 227.734 10.4451C228.145 9.33729 228.557 8.19783 228.968 7.02671L231.248 0.569734H239.797L230.488 20.7953V31.4303H222.319V20.7953Z" fill="#231F20"/>
<path d="M6.92715 16.1106L13.8543 28.1088H0L6.92715 16.1106Z" fill="#A9D04D"/>
<path d="M6.92716 16.1106L1.03952e-05 4.11241L13.8543 4.11241L6.92716 16.1106Z" fill="#8AC758"/>
</svg>
