<svg width="215" height="32" viewBox="0 0 215 32" fill="none" xmlns="http://www.w3.org/2000/svg">
<path d="M0.209045 0.569734H8.37817V12.0593H17.5922V0.569734H25.7613V31.4303H17.5922V19.181H8.37817V31.4303H0.209045V0.569734Z" fill="#231F20"/>
<path d="M45.7396 18.5638L45.2171 16.4273C44.8372 14.9397 44.4572 13.3254 44.0773 11.5846C43.6973 9.84372 43.3173 8.19783 42.9374 6.64689H42.7474C42.3991 8.22948 42.035 9.8912 41.655 11.632C41.3067 13.3412 40.9426 14.9397 40.5626 16.4273L40.0402 18.5638H45.7396ZM47.2119 24.8783H38.5679L37.048 31.4303H28.6889L38.0929 0.569734H47.9718L57.3758 31.4303H48.7318L47.2119 24.8783Z" fill="#231F20"/>
<path d="M68.4889 14.6231H71.4336C74.7266 14.6231 76.3731 13.2621 76.3731 10.5401C76.3731 9.21068 75.9456 8.29278 75.0907 7.78635C74.2674 7.27992 73.0484 7.02671 71.4336 7.02671H68.4889V14.6231ZM76.943 31.4303L71.6236 21.0801H68.4889V31.4303H60.3198V0.569734H72.0035C73.65 0.569734 75.2173 0.727993 76.7055 1.04451C78.2253 1.36103 79.5394 1.89911 80.6476 2.65876C81.7875 3.4184 82.6899 4.44709 83.3548 5.74481C84.0197 7.01088 84.3522 8.6093 84.3522 10.5401C84.3522 12.7557 83.8931 14.5915 82.9748 16.0475C82.0883 17.5035 80.8851 18.6429 79.3652 19.4659L86.062 31.4303H76.943Z" fill="#231F20"/>
<path d="M90.236 0.569734H98.9751L103.63 13.1988C103.915 14.0534 104.184 14.9397 104.437 15.8576C104.69 16.7755 104.959 17.6934 105.244 18.6113H105.434C105.719 17.6934 105.988 16.7755 106.242 15.8576C106.495 14.9397 106.764 14.0534 107.049 13.1988L111.514 0.569734H120.253V31.4303H112.844V22.3145C112.844 21.5232 112.875 20.6528 112.939 19.7033C113.034 18.7537 113.129 17.7883 113.224 16.8071C113.319 15.7943 113.429 14.8131 113.556 13.8635C113.683 12.9139 113.793 12.0594 113.888 11.2997H113.698L111.134 18.7062L107.334 28.9139H102.965L99.165 18.7062L96.6953 11.2997H96.5053C96.6003 12.0594 96.7111 12.9139 96.8378 13.8635C96.9644 14.8131 97.0753 15.7943 97.1702 16.8071C97.2652 17.7883 97.3444 18.7537 97.4077 19.7033C97.5027 20.6528 97.5502 21.5232 97.5502 22.3145V31.4303H90.236V0.569734Z" fill="#231F20"/>
<path d="M140.123 32C137.97 32 136.007 31.636 134.234 30.908C132.492 30.18 130.988 29.1355 129.722 27.7745C128.487 26.3818 127.521 24.6884 126.824 22.6944C126.128 20.6686 125.78 18.3897 125.78 15.8576C125.78 13.3254 126.128 11.0781 126.824 9.11573C127.521 7.12166 128.487 5.45994 129.722 4.13056C130.988 2.76954 132.492 1.74085 134.234 1.04451C136.007 0.348171 137.97 0 140.123 0C142.245 0 144.192 0.348171 145.965 1.04451C147.738 1.74085 149.242 2.76954 150.477 4.13056C151.743 5.49159 152.725 7.15331 153.422 9.11573C154.118 11.0781 154.467 13.3254 154.467 15.8576C154.467 18.3897 154.118 20.6686 153.422 22.6944C152.725 24.6884 151.743 26.3818 150.477 27.7745C149.242 29.1355 147.738 30.18 145.965 30.908C144.192 31.636 142.245 32 140.123 32ZM140.123 24.9733C141.991 24.9733 143.448 24.1662 144.493 22.5519C145.569 20.906 146.107 18.6746 146.107 15.8576C146.107 13.0406 145.569 10.8724 144.493 9.35312C143.448 7.80218 141.991 7.02671 140.123 7.02671C138.255 7.02671 136.783 7.80218 135.706 9.35312C134.661 10.8724 134.139 13.0406 134.139 15.8576C134.139 18.6746 134.661 20.906 135.706 22.5519C136.783 24.1662 138.255 24.9733 140.123 24.9733Z" fill="#231F20"/>
<path d="M159.994 0.569734H168.353L175.192 14.3383L178.137 21.27H178.327C178.232 20.4471 178.121 19.545 177.995 18.5638C177.868 17.5826 177.757 16.5856 177.662 15.5727C177.567 14.5282 177.472 13.4995 177.377 12.4866C177.314 11.4421 177.282 10.4451 177.282 9.49555V0.569734H185.071V31.4303H176.712L169.873 17.6142L166.928 10.73H166.738C166.928 12.5025 167.15 14.4332 167.403 16.5223C167.657 18.6113 167.783 20.6053 167.783 22.5045V31.4303H159.994V0.569734Z" fill="#231F20"/>
<path d="M197.319 20.7953L188.01 0.569734H196.749L199.029 7.02671C199.409 8.19783 199.789 9.33729 200.169 10.4451C200.549 11.5529 200.945 12.7082 201.356 13.911H201.546C201.958 12.7082 202.354 11.5529 202.734 10.4451C203.145 9.33729 203.557 8.19783 203.968 7.02671L206.248 0.569734H214.797L205.488 20.7953V31.4303H197.319V20.7953Z" fill="#231F20"/>
</svg>
