<svg width="24" height="24" viewBox="0 0 24 24" fill="none" xmlns="http://www.w3.org/2000/svg">
<path d="M23.4545 5.45455H18.5454V2.72725C18.5454 2.58238 18.4879 2.44385 18.3856 2.34158L16.2038 0.159801C16.1015 0.0575283 15.9631 0 15.8181 0H8.18181C8.03694 0 7.89841 0.0575283 7.79614 0.159801L5.6143 2.34163C5.51203 2.44391 5.4545 2.58238 5.4545 2.7273V5.45455H0.54542C0.243971 5.45455 0 5.69847 0 5.99997V21.8181C0 23.0214 0.978493 23.9999 2.18183 23.9999H21.8182C23.0215 23.9999 24 23.0215 24 21.8181V5.99997C23.9999 5.69847 23.756 5.45455 23.4545 5.45455ZM16.3636 1.86223L17.4545 2.95312V5.45455H16.3636V1.86223ZM8.72728 1.09089H15.2727V2.18178H8.72728V1.09089ZM8.72728 3.27272H15.2727V5.45455H8.72728V3.27272ZM6.54544 2.95312L7.63633 1.86223V5.45455H6.54544V2.95312ZM22.9091 21.8182C22.9091 22.4195 22.4195 22.9091 21.8182 22.9091H2.18183C1.58047 22.9091 1.09094 22.4195 1.09094 21.8182V6.54544H22.9091V21.8182Z" fill="#1A1A1A"/>
</svg>
