<svg width="24" height="24" xmlns="http://www.w3.org/2000/svg">
 <g id="Layer_1">
  <title>Layer 1</title>
  <g>
   <path fill="#1A1A1A" d="m11.546,13.092c3.60004,0 6.54604,-2.946 6.54604,-6.546c0,-3.6 -2.946,-6.546 -6.54604,-6.546c-3.6,0 -6.546,2.946 -6.546,6.546c0,3.6 2.946,6.546 6.546,6.546zm0,-12.0012c3,0 5.45284,2.454 5.45284,5.4552c0.0012,3 -2.45284,5.454 -5.45284,5.454c-3,0 -5.4552,-2.454 -5.4552,-5.454c0.0012,-3.0012 2.4552,-5.4552 5.4552,-5.4552z"/>
  </g>
  <g>
   <path fill="#1A1A1A" d="m16.9104,14.04673l-9.8196,0c-3.9276,0 -7.0908,3.1656 -7.0908,7.0944l0,2.72518l1.0908,0l0,-2.72518c0,-3.3288 2.6736,-6.0012 6,-6.0012l9.8196,0c3.3252,0 6.0012,2.6724 6.0012,6.0012l0,2.72518l1.0884,0l0,-2.72518c0,-3.9288 -3.1632,-7.0944 -7.0896,-7.0944z"/>
  </g>
 </g>

</svg>